<svg xmlns="http://www.w3.org/2000/svg" width="220" height="65" viewBox="-10 -23.635 220 65"><path fill="#FFF" d="M7.567-.855L-10 18.615h7.506l3.252-3.543H11.87l.19 3.543h6.47L16.729-.855H7.567zm-3.14 11.358l6.092-7.053h.886l.364 7.053H4.427zM45.748-.886H23.465l-1.818 4.502h7.88l-6.06 15h6.422l6.061-15h7.979l1.819-4.502zm19.831.031l-2.997 7.417H52.284l2.999-7.417h-6.391l-7.866 19.471h6.391l3.05-7.549h10.296l-3.048 7.549h6.355L71.936-.855h-6.357z"/><path fill="#1ABAB3" d="M126.8-.87l-17.467 19.468h5.044l3.829-4.204h12.408l.277 4.204h4.544L133.533-.87H126.8zm-6.107 12.02l8.178-9.04h.885l.743 9.04h-9.806zM163.435-.208c-.783-.44-2.067-.662-3.856-.662h-14.525l-.454 2.649-6.71 16.82h13.922c1.811 0 3.282-.22 4.42-.664 1.139-.44 2.061-1.097 2.773-1.969.712-.872 1.332-1.97 1.859-3.293l3.05-7.649c.521-1.303.765-2.389.739-3.261-.026-.874-.433-1.529-1.218-1.971zm-3.055 4.791l-3.415 8.564c-.658 1.59-1.849 2.384-3.57 2.384H142.85l5.304-13.298H158.7c.983 0 1.573.23 1.772.688.196.459.166 1.013-.092 1.662zm48.558-4.758c-.692-.453-1.81-.68-3.356-.68h-29.128c-1.567 0-2.882.228-3.945.68s-1.946 1.115-2.645 1.986c-.703.872-1.308 1.947-1.817 3.228l-3.051 7.649c-.521 1.302-.773 2.395-.761 3.276.013.884.371 1.545 1.077 1.987.706.44 1.832.663 3.376.663h29.129c2.297 0 4.074-.503 5.337-1.506 1.261-1.006 2.279-2.479 3.053-4.421l3.051-7.649c.512-1.281.759-2.356.742-3.228-.017-.87-.371-1.532-1.062-1.985zm-3.098 4.758l-3.415 8.564a3.716 3.716 0 01-1.386 1.746c-.629.426-1.355.638-2.184.638h-28.709c-.827 0-1.399-.208-1.717-.62-.316-.416-.322-1.004-.017-1.764l3.414-8.564c.287-.717.76-1.288 1.422-1.713s1.396-.638 2.202-.638h28.707c.806 0 1.354.23 1.64.688.287.46.302 1.013.043 1.663zM80.401-.855h-3.816l-6.71 16.821-1.692 2.648H81.23c3.171 0 4.164-.473 4.164-.473l1.082-2.672H73.88L80.401-.855zm14.08 11.113h12.381l1.28-3.227H95.76l1.93-4.764h16.223l1.24-3.122H94.599l-.45 2.415-6.803 17.054h16.048c2.95 0 4.177-.509 4.177-.509l1.069-2.635H92.409l2.072-5.212z"/></svg>