<svg xmlns="http://www.w3.org/2000/svg" width="45" height="30" viewBox="415.612 290.14 45 30"><path fill="#FFC704" d="M455.924 290.14h-5.625a4.688 4.688 0 00-4.687 4.688v5.625a4.689 4.689 0 004.687 4.688h5.625a4.69 4.69 0 004.688-4.688v-5.625c0-2.589-2.1-4.688-4.688-4.688zm3.282 10.313a3.286 3.286 0 01-3.281 3.281H450.3a3.286 3.286 0 01-3.281-3.281v-5.625a3.286 3.286 0 013.281-3.281h5.625a3.285 3.285 0 013.281 3.281v5.625zm-6.094-6.563a3.75 3.75 0 100 7.5 3.75 3.75 0 000-7.5zm0 6.094a2.348 2.348 0 01-2.344-2.344 2.347 2.347 0 012.344-2.344 2.347 2.347 0 012.344 2.344 2.349 2.349 0 01-2.344 2.344zm4.03-6.875a.5.5 0 10.002 1 .5.5 0 00-.002-1z"/><path fill="#FFC704" d="M444.112 291.64h-12c-.825 0-1.499.675-1.499 1.5v9c0 .824.674 1.5 1.499 1.5h12c.825 0 1.5-.676 1.5-1.5v-9c0-.825-.675-1.5-1.5-1.5zm0 3l-6 3.75-6-3.75v-1.5l6 3.75 6-3.75v1.5z"/><path fill="#FFC704" d="M430.605 301.978a.726.726 0 01-.223.636l-2.111 2.098c-.095.106-.22.196-.373.27a1.507 1.507 0 01-.452.143 2.274 2.274 0 01-.302.017 7.29 7.29 0 01-.977-.103c-.45-.069-1-.238-1.651-.508-.651-.272-1.39-.677-2.216-1.217-.825-.541-1.705-1.282-2.636-2.225a17.372 17.372 0 01-1.842-2.098 14.916 14.916 0 01-1.175-1.851 9.963 9.963 0 01-.667-1.542 8.213 8.213 0 01-.302-1.191 3.894 3.894 0 01-.063-.787c.01-.191.016-.297.016-.318a1.55 1.55 0 01.143-.453c.074-.154.164-.278.27-.374l2.112-2.113a.701.701 0 01.508-.223c.137 0 .259.04.365.119s.196.177.27.294l1.7 3.226a.77.77 0 01.079.556.982.982 0 01-.27.508l-.778.778a.269.269 0 00-.056.104.395.395 0 00-.024.12c.042.223.138.477.286.762.127.255.323.564.587.93.265.365.641.787 1.127 1.264.477.487.9.865 1.271 1.137.37.27.68.468.928.595.25.127.439.204.572.23l.199.04c.02 0 .055-.009.102-.024a.262.262 0 00.104-.055l.906-.923a.972.972 0 01.667-.254c.179 0 .323.032.429.096h.016l3.064 1.813c.223.137.355.311.397.523z"/><path fill="#FFF" d="M455.924 305.14h-5.625a4.689 4.689 0 00-4.687 4.688v5.625a4.689 4.689 0 004.687 4.688h5.625a4.69 4.69 0 004.688-4.688v-5.625a4.69 4.69 0 00-4.688-4.688zm3.282 10.313a3.286 3.286 0 01-3.281 3.281H450.3a3.286 3.286 0 01-3.281-3.281v-5.625a3.286 3.286 0 013.281-3.281h5.625a3.286 3.286 0 013.281 3.281v5.625zm-6.094-6.563a3.75 3.75 0 10.001 7.501 3.75 3.75 0 00-.001-7.501zm0 6.094a2.348 2.348 0 01-2.344-2.344 2.347 2.347 0 012.344-2.344 2.347 2.347 0 012.344 2.344 2.349 2.349 0 01-2.344 2.344zm4.03-6.875a.5.5 0 10.003 1.001.5.5 0 00-.003-1.001z"/><path fill="#FFF" d="M444.112 306.64h-12c-.825 0-1.499.675-1.499 1.5v9c0 .824.674 1.5 1.499 1.5h12c.825 0 1.5-.676 1.5-1.5v-9c0-.825-.675-1.5-1.5-1.5zm0 3l-6 3.75-6-3.75v-1.5l6 3.75 6-3.75v1.5z"/><path fill="#FFF" d="M430.605 316.978a.726.726 0 01-.223.636l-2.111 2.098c-.095.106-.22.196-.373.27a1.507 1.507 0 01-.452.143 2.274 2.274 0 01-.302.017 7.29 7.29 0 01-.977-.103c-.45-.069-1-.238-1.651-.508-.651-.272-1.39-.677-2.216-1.217-.825-.541-1.705-1.282-2.636-2.225a17.372 17.372 0 01-1.842-2.098 14.842 14.842 0 01-1.175-1.851 9.963 9.963 0 01-.667-1.542 8.213 8.213 0 01-.302-1.191 3.895 3.895 0 01-.063-.786c.01-.191.016-.297.016-.318.021-.148.069-.299.143-.453s.164-.277.27-.373l2.112-2.113a.701.701 0 01.508-.223c.137 0 .259.04.365.119s.196.178.27.295l1.7 3.225c.095.17.122.354.079.557a.982.982 0 01-.27.508l-.778.778c-.021.021-.04.056-.056.104s-.024.089-.024.12c.042.223.138.477.286.762.127.255.323.564.587.93s.641.787 1.127 1.264c.477.487.9.865 1.271 1.137.37.27.68.468.928.595.25.127.439.204.572.23l.199.04c.02 0 .055-.009.102-.024a.262.262 0 00.104-.055l.906-.923a.972.972 0 01.667-.254c.179 0 .323.032.429.096h.016l3.064 1.813c.223.134.355.308.397.52z"/></svg>