<svg xmlns="http://www.w3.org/2000/svg" width="200" height="65" viewBox="0 0 200 65"><path fill="#9CC448" d="M63.031 20.2v22.809h4.776V20.2h-4.776zM.005 43.009h4.776V20.2H.005v22.809zm45.296-16.263H22.512V14.867H7.387v33.475h15.125V36.463h22.789v11.879h15.125V14.867H45.301v11.879z"/><path fill="#E2F2EE" d="M92.938 40.686h-6.092V35.33h-1.924v13.012h1.924V42.42h6.092v5.922h1.923V35.33h-1.923v5.356zm-10.41-21.791h5.131v13.678h4.464V18.895h5.133v-4.028H82.528v4.028zm30.304 12.779l-2.669-5.208c1.438-.65 2.156-2.019 2.156-4.106v-2.977c0-3.01-1.505-4.516-4.516-4.516h-8.725v17.706h4.464V26.85h2.002l2.926 5.723h3.849l.513-.899zm-4.978-9.136c0 .189-.094.283-.281.283h-4.029v-3.926h4.029c.188 0 .281.095.281.283v3.36zm-2.128 22.995c0 .715-.356 1.075-1.075 1.075h-3.958c-.706 0-1.057-.36-1.057-1.075V35.33h-1.924v10.033c0 1.986.988 2.979 2.961 2.979h3.998c1.987 0 2.98-.992 2.98-2.979V35.33h-1.925v10.203zm27.217-12.961h4.465V14.867h-4.465v17.705zm45.071-7.442l-5.877-10.264h-4.824v17.706h4.466V22.308l5.9 10.264h4.8V14.867h-4.465V25.13zm14.623-3.592v4.028h2.898v2.977h-5.054c-.188 0-.283-.093-.283-.282v-9.083c0-.188.095-.283.283-.283h9.005v-2.488l-2-1.54h-7.235c-3.012 0-4.517 1.505-4.517 4.516v8.673c0 3.012 1.505 4.517 4.517 4.517H200V21.538h-7.363zm-33.215 11.034h4.466V14.867h-4.466v17.705zm-40.161 9.53l-.791-.661.659-.79c.252-.304.377-.669.377-1.097v-1.242c0-1.989-.992-2.981-2.98-2.981h-6.015v13.012h6.395c1.984 0 2.978-.992 2.978-2.979V43.61c-.001-.668-.208-1.172-.623-1.508zm-6.826-5.037h4.072c.718 0 1.076.357 1.076 1.074v1.471c0 .717-.358 1.075-1.076 1.075h-4.072v-3.62zm5.526 8.468c0 .715-.358 1.075-1.074 1.075h-4.452V42.42h4.452c.716 0 1.074.359 1.074 1.076v2.037zm6.988-30.608h-5.234c-3.01 0-4.517 1.505-4.517 4.516V32.63h4.465v-5.733h5.338v5.733h4.466V19.44c0-3.01-1.505-4.515-4.518-4.515zm.052 7.964h-5.338v-3.654c0-.188.096-.283.284-.283h4.772c.188 0 .281.095.281.283v3.654zm26.531 2.241l-5.875-10.264h-4.823v17.706h4.464V22.308l5.901 10.264h4.799V14.867h-4.466V25.13zM25.118 48.272L33.949 65l8.746-16.566V39.07H25.118v9.202zM6.107 12.261h19.011V24.14h17.577V12.261h19.096L67.899.692H0l6.107 11.569z"/></svg>