<svg xmlns="http://www.w3.org/2000/svg" width="60" height="60" viewBox="0 0 60 60"><path fill="#FFC609" d="M30 0C13.458 0 0 13.458 0 30c0 16.543 13.458 30 30 30 16.543 0 30-13.457 30-30C60 13.458 46.543 0 30 0zm0 58.223C14.413 58.223 1.776 45.588 1.776 30 1.776 14.413 14.413 1.776 30 1.776S58.224 14.412 58.224 30c0 15.588-12.637 28.223-28.224 28.223zm21.854-37.22h-6.895l-3.84 7.375h-7.904v-7.375h-6.429v14.749h-4.064l-7.679-14.749H8.147L18.91 41.365h14.304v-7.373h7.904l3.84 7.373h6.895L46.44 31.184l5.414-10.181z"/></svg>