<?xml version="1.0" encoding="utf-8"?>
<!-- Generator: Adobe Illustrator 15.1.0, SVG Export Plug-In . SVG Version: 6.00 Build 0)  -->
<!DOCTYPE svg PUBLIC "-//W3C//DTD SVG 1.1//EN" "http://www.w3.org/Graphics/SVG/1.1/DTD/svg11.dtd">
<svg version="1.1" id="Vrstva_1" xmlns="http://www.w3.org/2000/svg" xmlns:xlink="http://www.w3.org/1999/xlink" x="0px" y="0px"
	 width="220px" height="65px" viewBox="-10 -23.635 220 65" enable-background="new -10 -23.635 220 65" xml:space="preserve">
<g>
	<path fill="#FFFFFF" d="M7.567-0.855L-10,18.615h7.506l3.252-3.543h11.112l0.19,3.543h6.47L16.729-0.855H7.567z M4.427,10.503
		l6.092-7.053h0.886l0.364,7.053H4.427z M45.748-0.886H23.465l-1.818,4.502h7.88l-6.06,15h6.422l6.061-15h7.979L45.748-0.886z
		 M65.579-0.855l-2.997,7.417H52.284l2.999-7.417h-6.391l-7.866,19.471h6.391l3.05-7.549h10.296l-3.048,7.549h6.355l7.866-19.471
		H65.579z"/>
	<path fill="#1ABAB3" d="M126.8-0.87l-17.467,19.468h5.044l3.829-4.204h12.408l0.277,4.204h4.544L133.533-0.87H126.8z
		 M120.693,11.15l8.178-9.04h0.885l0.743,9.04H120.693z M163.435-0.208c-0.783-0.44-2.067-0.662-3.856-0.662h-14.525L144.6,1.779
		l-6.71,16.82h13.922c1.811,0,3.282-0.22,4.42-0.664c1.139-0.44,2.061-1.097,2.773-1.969c0.712-0.872,1.332-1.97,1.859-3.293
		l3.05-7.649c0.521-1.303,0.765-2.389,0.739-3.261C164.627,0.889,164.22,0.234,163.435-0.208z M160.38,4.583l-3.415,8.564
		c-0.658,1.59-1.849,2.384-3.57,2.384H142.85l5.304-13.298H158.7c0.983,0,1.573,0.23,1.772,0.688
		C160.668,3.38,160.638,3.934,160.38,4.583z M208.938-0.175c-0.692-0.453-1.81-0.68-3.356-0.68h-29.128
		c-1.567,0-2.882,0.228-3.945,0.68s-1.946,1.115-2.645,1.986c-0.703,0.872-1.308,1.947-1.817,3.228l-3.051,7.649
		c-0.521,1.302-0.773,2.395-0.761,3.276c0.013,0.884,0.371,1.545,1.077,1.987c0.706,0.44,1.832,0.663,3.376,0.663h29.129
		c2.297,0,4.074-0.503,5.337-1.506c1.261-1.006,2.279-2.479,3.053-4.421l3.051-7.649c0.512-1.281,0.759-2.356,0.742-3.228
		C209.983,0.94,209.629,0.278,208.938-0.175z M205.84,4.583l-3.415,8.564c-0.294,0.738-0.758,1.321-1.386,1.746
		c-0.629,0.426-1.355,0.638-2.184,0.638h-28.709c-0.827,0-1.399-0.208-1.717-0.62c-0.316-0.416-0.322-1.004-0.017-1.764l3.414-8.564
		c0.287-0.717,0.76-1.288,1.422-1.713s1.396-0.638,2.202-0.638h28.707c0.806,0,1.354,0.23,1.64,0.688
		C206.084,3.38,206.099,3.933,205.84,4.583z M80.401-0.855h-3.816l-6.71,16.821l-1.692,2.648H81.23c3.171,0,4.164-0.473,4.164-0.473
		l1.082-2.672H73.88L80.401-0.855z M94.481,10.258h12.381l1.28-3.227H95.76l1.93-4.764h16.223l1.24-3.122H94.599L94.149,1.56
		l-6.803,17.054h16.048c2.95,0,4.177-0.509,4.177-0.509l1.069-2.635H92.409L94.481,10.258z"/>
</g>
</svg>
