<?xml version="1.0" encoding="utf-8"?>
<!-- Generator: Adobe Illustrator 15.1.0, SVG Export Plug-In . SVG Version: 6.00 Build 0)  -->
<!DOCTYPE svg PUBLIC "-//W3C//DTD SVG 1.1//EN" "http://www.w3.org/Graphics/SVG/1.1/DTD/svg11.dtd">
<svg version="1.1" id="Capa_1" xmlns="http://www.w3.org/2000/svg" xmlns:xlink="http://www.w3.org/1999/xlink" x="0px" y="0px"
	 width="45px" height="30px" viewBox="415.612 290.14 45 30" enable-background="new 415.612 290.14 45 30" xml:space="preserve">
<path fill="#FFC704" d="M455.924,290.14h-5.625c-2.588,0-4.687,2.099-4.687,4.688v5.625c0,2.588,2.099,4.688,4.687,4.688h5.625
	c2.588,0,4.688-2.1,4.688-4.688v-5.625C460.612,292.239,458.512,290.14,455.924,290.14z M459.206,300.453
	c0,1.809-1.473,3.281-3.281,3.281h-5.625c-1.809,0-3.281-1.473-3.281-3.281v-5.625c0-1.809,1.473-3.281,3.281-3.281h5.625
	c1.809,0,3.281,1.472,3.281,3.281V300.453z M453.112,293.89c-2.071,0-3.75,1.679-3.75,3.75c0,2.071,1.679,3.75,3.75,3.75
	s3.75-1.679,3.75-3.75C456.862,295.569,455.183,293.89,453.112,293.89z M453.112,299.984c-1.292,0-2.344-1.053-2.344-2.344
	c0-1.293,1.052-2.344,2.344-2.344c1.291,0,2.344,1.051,2.344,2.344C455.456,298.931,454.403,299.984,453.112,299.984z
	 M457.142,293.109c-0.275,0-0.499,0.224-0.499,0.5s0.224,0.5,0.499,0.5c0.277,0,0.5-0.224,0.5-0.5S457.419,293.109,457.142,293.109z
	"/>
<g>
	<g id="email">
		<path fill="#FFC704" d="M444.112,291.64h-12c-0.825,0-1.499,0.675-1.499,1.5v9c0,0.824,0.674,1.5,1.499,1.5h12
			c0.825,0,1.5-0.676,1.5-1.5v-9C445.612,292.315,444.937,291.64,444.112,291.64z M444.112,294.64l-6,3.75l-6-3.75v-1.5l6,3.75
			l6-3.75V294.64z"/>
	</g>
</g>
<g>
	<g>
		<path fill="#FFC704" d="M430.605,301.978c0.031,0.244-0.042,0.456-0.223,0.636l-2.111,2.098c-0.095,0.106-0.22,0.196-0.373,0.27
			c-0.152,0.075-0.305,0.122-0.452,0.143c-0.011,0-0.042,0.003-0.096,0.009c-0.054,0.005-0.122,0.008-0.206,0.008
			c-0.201,0-0.527-0.034-0.977-0.103c-0.45-0.069-1-0.238-1.651-0.508c-0.651-0.272-1.39-0.677-2.216-1.217
			c-0.825-0.541-1.705-1.282-2.636-2.225c-0.741-0.73-1.355-1.431-1.842-2.098c-0.487-0.667-0.879-1.285-1.175-1.851
			c-0.296-0.566-0.519-1.081-0.667-1.542c-0.148-0.46-0.249-0.858-0.302-1.191c-0.053-0.333-0.074-0.596-0.063-0.787
			c0.01-0.191,0.016-0.297,0.016-0.318c0.021-0.148,0.069-0.299,0.143-0.453c0.074-0.154,0.164-0.278,0.27-0.374l2.112-2.113
			c0.148-0.148,0.318-0.223,0.508-0.223c0.137,0,0.259,0.04,0.365,0.119s0.196,0.177,0.27,0.294l1.7,3.226
			c0.095,0.169,0.122,0.354,0.079,0.556c-0.042,0.201-0.132,0.371-0.27,0.508l-0.778,0.778c-0.021,0.021-0.04,0.056-0.056,0.104
			c-0.016,0.048-0.024,0.088-0.024,0.12c0.042,0.223,0.138,0.477,0.286,0.762c0.127,0.255,0.323,0.564,0.587,0.93
			c0.265,0.365,0.641,0.787,1.127,1.264c0.477,0.487,0.9,0.865,1.271,1.137c0.37,0.27,0.68,0.468,0.928,0.595
			c0.25,0.127,0.439,0.204,0.572,0.23l0.199,0.04c0.02,0,0.055-0.009,0.102-0.024c0.049-0.016,0.083-0.034,0.104-0.055l0.906-0.923
			c0.19-0.169,0.412-0.254,0.667-0.254c0.179,0,0.323,0.032,0.429,0.096h0.016l3.064,1.813
			C430.431,301.592,430.563,301.766,430.605,301.978z"/>
	</g>
</g>
<path fill="#FFFFFF" d="M455.924,305.14h-5.625c-2.588,0-4.687,2.1-4.687,4.688v5.625c0,2.588,2.099,4.688,4.687,4.688h5.625
	c2.588,0,4.688-2.1,4.688-4.688v-5.625C460.612,307.24,458.512,305.14,455.924,305.14z M459.206,315.453
	c0,1.809-1.473,3.281-3.281,3.281h-5.625c-1.809,0-3.281-1.473-3.281-3.281v-5.625c0-1.809,1.473-3.281,3.281-3.281h5.625
	c1.809,0,3.281,1.473,3.281,3.281V315.453z M453.112,308.89c-2.071,0-3.75,1.68-3.75,3.75c0,2.071,1.679,3.75,3.75,3.75
	s3.75-1.679,3.75-3.75C456.862,310.57,455.183,308.89,453.112,308.89z M453.112,314.984c-1.292,0-2.344-1.053-2.344-2.344
	c0-1.293,1.052-2.344,2.344-2.344c1.291,0,2.344,1.051,2.344,2.344C455.456,313.931,454.403,314.984,453.112,314.984z
	 M457.142,308.109c-0.275,0-0.499,0.225-0.499,0.5s0.224,0.5,0.499,0.5c0.277,0,0.5-0.225,0.5-0.5S457.419,308.109,457.142,308.109z
	"/>
<g>
	<g id="email_1_">
		<path fill="#FFFFFF" d="M444.112,306.64h-12c-0.825,0-1.499,0.675-1.499,1.5v9c0,0.824,0.674,1.5,1.499,1.5h12
			c0.825,0,1.5-0.676,1.5-1.5v-9C445.612,307.315,444.937,306.64,444.112,306.64z M444.112,309.64l-6,3.75l-6-3.75v-1.5l6,3.75
			l6-3.75V309.64z"/>
	</g>
</g>
<g>
	<g>
		<path fill="#FFFFFF" d="M430.605,316.978c0.031,0.244-0.042,0.456-0.223,0.636l-2.111,2.098c-0.095,0.106-0.22,0.196-0.373,0.27
			c-0.152,0.075-0.305,0.122-0.452,0.143c-0.011,0-0.042,0.003-0.096,0.009c-0.054,0.005-0.122,0.008-0.206,0.008
			c-0.201,0-0.527-0.034-0.977-0.103c-0.45-0.069-1-0.238-1.651-0.508c-0.651-0.272-1.39-0.677-2.216-1.217
			c-0.825-0.541-1.705-1.282-2.636-2.225c-0.741-0.73-1.355-1.431-1.842-2.098c-0.487-0.667-0.879-1.284-1.175-1.851
			c-0.296-0.566-0.519-1.081-0.667-1.542c-0.148-0.46-0.249-0.858-0.302-1.191c-0.053-0.333-0.074-0.597-0.063-0.786
			c0.01-0.191,0.016-0.297,0.016-0.318c0.021-0.148,0.069-0.299,0.143-0.453s0.164-0.277,0.27-0.373l2.112-2.113
			c0.148-0.148,0.318-0.223,0.508-0.223c0.137,0,0.259,0.04,0.365,0.119s0.196,0.178,0.27,0.295l1.7,3.225
			c0.095,0.17,0.122,0.354,0.079,0.557c-0.042,0.201-0.132,0.371-0.27,0.508l-0.778,0.778c-0.021,0.021-0.04,0.056-0.056,0.104
			s-0.024,0.089-0.024,0.12c0.042,0.223,0.138,0.477,0.286,0.762c0.127,0.255,0.323,0.564,0.587,0.93s0.641,0.787,1.127,1.264
			c0.477,0.487,0.9,0.865,1.271,1.137c0.37,0.27,0.68,0.468,0.928,0.595c0.25,0.127,0.439,0.204,0.572,0.23l0.199,0.04
			c0.02,0,0.055-0.009,0.102-0.024c0.049-0.016,0.083-0.034,0.104-0.055l0.906-0.923c0.19-0.169,0.412-0.254,0.667-0.254
			c0.179,0,0.323,0.032,0.429,0.096h0.016l3.064,1.813C430.431,316.592,430.563,316.766,430.605,316.978z"/>
	</g>
</g>
</svg>
