<?xml version="1.0" encoding="utf-8"?>
<!-- Generator: Adobe Illustrator 15.1.0, SVG Export Plug-In . SVG Version: 6.00 Build 0)  -->
<!DOCTYPE svg PUBLIC "-//W3C//DTD SVG 1.1//EN" "http://www.w3.org/Graphics/SVG/1.1/DTD/svg11.dtd">
<svg version="1.1" id="Vrstva_1" xmlns="http://www.w3.org/2000/svg" xmlns:xlink="http://www.w3.org/1999/xlink" x="0px" y="0px"
	 width="200px" height="65px" viewBox="0 0 200 65" enable-background="new 0 0 200 65" xml:space="preserve">
<g>
	<path fill="#9CC448" d="M63.031,20.2v22.809h4.776V20.2H63.031z M0.005,43.009h4.776V20.2H0.005V43.009z M45.301,26.746H22.512
		V14.867H7.387v33.475h15.125V36.463h22.789v11.879h15.125V14.867H45.301V26.746z"/>
	<path fill="#E2F2EE" d="M92.938,40.686h-6.092V35.33h-1.924v13.012h1.924V42.42h6.092v5.922h1.923V35.33h-1.923V40.686z
		 M82.528,18.895h5.131v13.678h4.464V18.895h5.133v-4.028H82.528V18.895z M112.832,31.674l-2.669-5.208
		c1.438-0.65,2.156-2.019,2.156-4.106v-2.977c0-3.01-1.505-4.516-4.516-4.516h-8.725v17.706h4.464V26.85h2.002l2.926,5.723h3.849
		L112.832,31.674z M107.854,22.538c0,0.189-0.094,0.283-0.281,0.283h-4.029v-3.926h4.029c0.188,0,0.281,0.095,0.281,0.283V22.538z
		 M105.726,45.533c0,0.715-0.356,1.075-1.075,1.075h-3.958c-0.706,0-1.057-0.36-1.057-1.075V35.33h-1.924v10.033
		c0,1.986,0.988,2.979,2.961,2.979h3.998c1.987,0,2.98-0.992,2.98-2.979V35.33h-1.925V45.533z M132.943,32.572h4.465V14.867h-4.465
		V32.572z M178.014,25.13l-5.877-10.264h-4.824v17.706h4.466V22.308l5.9,10.264h4.8V14.867h-4.465V25.13z M192.637,21.538v4.028
		h2.898v2.977h-5.054c-0.188,0-0.283-0.093-0.283-0.282v-9.083c0-0.188,0.095-0.283,0.283-0.283h9.005v-2.488l-2-1.54h-7.235
		c-3.012,0-4.517,1.505-4.517,4.516v8.673c0,3.012,1.505,4.517,4.517,4.517H200V21.538H192.637z M159.422,32.572h4.466V14.867
		h-4.466V32.572z M119.261,42.102l-0.791-0.661l0.659-0.79c0.252-0.304,0.377-0.669,0.377-1.097v-1.242
		c0-1.989-0.992-2.981-2.98-2.981h-6.015v13.012h6.395c1.984,0,2.978-0.992,2.978-2.979v-1.754
		C119.883,42.942,119.676,42.438,119.261,42.102z M112.435,37.065h4.072c0.718,0,1.076,0.357,1.076,1.074v1.471
		c0,0.717-0.358,1.075-1.076,1.075h-4.072V37.065z M117.961,45.533c0,0.715-0.358,1.075-1.074,1.075h-4.452V42.42h4.452
		c0.716,0,1.074,0.359,1.074,1.076V45.533z M124.949,14.925h-5.234c-3.01,0-4.517,1.505-4.517,4.516v13.189h4.465v-5.733h5.338
		v5.733h4.466V19.44C129.467,16.43,127.962,14.925,124.949,14.925z M125.001,22.889h-5.338v-3.654c0-0.188,0.096-0.283,0.284-0.283
		h4.772c0.188,0,0.281,0.095,0.281,0.283V22.889z M151.532,25.13l-5.875-10.264h-4.823v17.706h4.464V22.308l5.901,10.264h4.799
		V14.867h-4.466V25.13z M25.118,48.272L33.949,65l8.746-16.566V39.07H25.118V48.272z M6.107,12.261h19.011V24.14h17.577V12.261
		h19.096l6.108-11.569H0L6.107,12.261z"/>
</g>
</svg>
