<?xml version="1.0" encoding="utf-8"?>
<!-- Generator: Adobe Illustrator 15.1.0, SVG Export Plug-In . SVG Version: 6.00 Build 0)  -->
<!DOCTYPE svg PUBLIC "-//W3C//DTD SVG 1.1//EN" "http://www.w3.org/Graphics/SVG/1.1/DTD/svg11.dtd">
<svg version="1.1" id="Vrstva_1" xmlns="http://www.w3.org/2000/svg" xmlns:xlink="http://www.w3.org/1999/xlink" x="0px" y="0px"
	 width="60px" height="60px" viewBox="0 0 60 60" enable-background="new 0 0 60 60" xml:space="preserve">
<g>
	<g>
		<path fill="#FFC609" d="M30,0C13.458,0,0,13.458,0,30c0,16.543,13.458,30,30,30c16.543,0,30-13.457,30-30C60,13.458,46.543,0,30,0
			z M30,58.223C14.413,58.223,1.776,45.588,1.776,30C1.776,14.413,14.413,1.776,30,1.776c15.587,0,28.224,12.636,28.224,28.224
			C58.224,45.588,45.587,58.223,30,58.223z M51.854,21.003h-6.895l-3.84,7.375h-7.904v-7.375h-6.429v14.749h-4.064l-7.679-14.749
			H8.147l10.763,20.362h14.304v-7.373h7.904l3.84,7.373h6.895L46.44,31.184L51.854,21.003z"/>
	</g>
</g>
</svg>
